<svg xmlns="http://www.w3.org/2000/svg" xmlns:svg="http://www.w3.org/2000/svg" id="Layer_1" x="0" y="0" version="1.1" viewBox="0 0 1920 1080" xml:space="preserve" style="enable-background:new 0 0 1920 1080"><metadata id="metadata97"/><style id="style2" type="text/css">.st0{fill:none;stroke:#fff;stroke-width:7;stroke-miterlimit:10}</style><path id="path4" d="m 1075.3993,77.3753 c 78.973,16.497262 147.7116,83.40283 147.7116,83.40283 97.7615,-3.05505 239.8213,74.84868 239.8213,74.84868 0,0 171.0827,94.7065 190.9405,271.89932 19.8578,177.19281 -47.3532,265.78922 -47.3532,265.78922 0,0 -58.0459,125.25699 -206.2158,172.61024 -148.1698,47.35325 -415.48662,35.13306 -415.48662,35.13306 -267.31672,30.55045 -407.84895,-80.95879 -407.84895,-80.95879 0,0 19.09405,20.62158 80.19502,16.03901 18.48305,-1.37478 74.84869,-9.16515 74.84869,-9.16515 l 160.39005,-12.22019 c 35.13306,-16.80277 76.68172,-71.48814 76.68172,-71.48814 0,0 109.67629,-122.50744 76.07069,-311.92045 -33.6055,-189.41301 -161.91756,-256.62408 -161.91756,-256.62408 -96.23403,12.2202 -114.56432,4.58258 -114.56432,4.58258 l -53.46335,-19.85782 c 53.46335,-35.13305 139.00471,-50.4083 139.00471,-50.4083 l 41.24316,-3.05504 c 30.55048,-18.3303 108.91246,-25.20415 108.91246,-25.20415 h 218.7415" class="st0"/><path id="path6" d="M 999.17578,77.3753 896.98446,101.96844 V 89.595494 c 0,0 -15.27524,1.680277 -30.55049,18.483046 V 97.385868 l -9.16514,9.165142 -4.88808,-29.17571" class="st0"/><path id="path8" d="M 896.98446,101.96844 848.10368,123.35378 1055.236,77.3753 c 0,0 22.1491,2.444039 11.3037,83.40283" class="st0"/><path id="path10" d="m 576.96813,900.09986 31.31425,-8.40138 c 0,0 -106.9267,-58.04592 -143.58728,-209.27082 0,0 -19.85782,-32.07801 -24.44039,-54.99088 0,0 -26.57892,-18.78855 -30.85599,-28.41195" class="st0"/><path id="path12" d="m 420.39689,585.42987 c 0,6.7211 -4.42982,12.06744 -10.08166,12.8312 -0.45826,0 -0.91651,0.15275 -1.37477,0.15275 -6.26285,0 -11.45643,-5.80459 -11.45643,-12.98395 0,-7.17937 5.19358,-12.98396 11.45643,-12.98396 6.26285,0 11.45643,5.80459 11.45643,12.98396 z" class="st0"/><path id="path14" d="m 410.31523,598.26107 26.88443,-1.37477 c 0,0 10.69267,-4.58258 9.16514,-13.74772 -1.52752,-9.16515 -4.58257,-10.69267 -9.16514,-12.2202 -4.58257,-1.52752 -28.2592,0.61101 -28.2592,0.61101" class="st0"/><path id="path16" d="m 427.72901,617.96613 c 0,0 33.91104,-7.33211 32.38351,-28.71745 -1.52752,-21.38534 1.52753,-27.49544 -27.49543,-41.24316 0,0 -16.80277,3.51331 -23.67663,22.30185" class="st0"/><path id="path18" d="m 432.61709,548.00552 96.23402,-73.32116 c 0,0 30.55049,18.33029 64.15602,19.85781 0,0 46.13124,34.6748 36.04958,104.48266 -10.08166,69.65511 -78.82026,97.15054 -78.82026,97.15054 L 440.25471,627.43678" class="st0"/><path id="path20" d="m 991.53818,981.36415 c 0,0 13.90052,-54.53261 -99.13629,-86.61062" class="st0"/><ellipse id="ellipse22" cx="293.785" cy="1368.629" class="st0" rx="42.007" ry="27.496" transform="rotate(-38.593593)"/><path id="path24" d="m 464.6951,682.42766 c 0,0 54.99087,91.65145 149.69737,59.57344 94.70651,-32.07801 102.34413,-135.94966 102.34413,-135.94966 0,0 10.69267,-80.95878 -36.66058,-142.05975 0,0 -44.29821,30.55048 -77.90374,29.02296 0,0 38.64636,25.96791 37.5771,92.41522 -1.06927,66.4473 -60.48997,103.10788 -60.48997,103.10788 0,0 -10.69267,9.16515 -19.85781,12.2202 l -9.16515,-4.58258 79.43127,39.71563" class="st0"/><line id="line26" x1="593.007" x2="602.172" y1="494.542" y2="493.015" class="st0"/><path id="path28" d="m 1076.9268,982.43342 c 0,0 297.8672,-80.04227 265.1782,-487.89125 0,0 -3.2078,-232.18369 -270.83,-333.76404" class="st0"/><path id="path30" d="m 1407.1776,291.38145 c -3.0551,-76.37621 -84.0139,-85.54136 -84.0139,-85.54136 l -67.211,68.43308 151.2249,17.10828 1.5275,-3.05505 7.6376,13.74772 -152.7524,-18.3303 -7.6376,-9.47065 -4.5826,-5.80459 h 9.1651" class="st0"/><path id="path32" d="m 528.85111,738.7933 c 0,0 87.06889,78.05649 195.52311,-12.06744 0,0 93.17898,-102.34413 41.24315,-229.12864 0,0 -10.69267,-35.13306 -36.66058,-58.04592 l -48.88077,24.44039" class="st0"/><polyline id="polyline34" points="534.5 353.5 523.5 341.5 495.5 355.5 505.2 368.1" class="st0" transform="matrix(1.5275243,0,0,1.5275243,-87.504927,-100.42853)"/><polygon id="polygon36" points="586.5 303.5 578.5 278.5 534.5 310.7 523.5 331.5 523.5 341.5" class="st0" transform="matrix(1.5275243,0,0,1.5275243,-87.504927,-100.42853)"/><path id="path38" d="m 582.77272,765.83048 c 0,0 107.99597,63.2395 159.93179,44.90921 0,0 157.335,-21.38534 172.61024,-216.90844 0,0 15.27524,-129.83956 -106.9267,-230.65616" class="st0"/><path id="path40" d="m 528.85111,474.68436 c 0,0 -105.39917,-67.21107 -177.19281,-48.88078 0,0 -4.58258,70.26612 51.93583,61.10097 0,0 39.71563,-1.52752 59.57344,-27.49544 v 16.80277 c 0,0 -26.27342,44.2982 -21.53809,64.91978" class="st0"/><path id="path42" d="m 669.38335,442.60635 -7.63763,6.11009 c 0,0 -16.80276,24.44039 -50.4083,27.49544 0,0 -24.44038,7.63762 -93.17898,-15.27524 l -68.12758,-24.13489" class="st0"/><path id="path44" d="m 367.85006,421.22101 -57.43492,-99.28908 139.61572,3.05505 111.96753,11.60918 49.33903,5.19359 67.21107,6.11009 c 0,0 20.31607,24.28764 26.27342,74.69594" class="st0"/><polygon id="polygon46" points="520.5 242.5 520.5 255.4 437.2 287.4 425.2 286.1 424.5 281.5 459.5 264.5 482.5 260.5" class="st0" transform="matrix(1.5275243,0,0,1.5275243,-87.504927,-100.42853)"/><polyline id="polyline48" points="260.5 276.5 248.5 256.5 313.5 256.5 311.6 266.5 336.5 270.5 339 278.2" class="st0" transform="matrix(1.5275243,0,0,1.5275243,-87.504927,-100.42853)"/><path id="path50" d="m 777.68482,338.58195 c 0,0 -19.70507,-39.56288 -33.45279,-48.72803 v -8.85964 h -22.91286 l -13.74772,8.70689" class="st0"/><polyline id="polyline52" points="313.5 256.5 321.5 200.5 334.5 196.5 414.7 196.5" class="st0" transform="matrix(1.5275243,0,0,1.5275243,-87.504927,-100.42853)"/><polyline id="polyline54" points="438.8 193.9 579.5 182.5 584.1 196.5" class="st0" transform="matrix(1.5275243,0,0,1.5275243,-87.504927,-100.42853)"/><ellipse id="ellipse56" cx="565.512" cy="239.446" class="st0" rx="30.55" ry="51.936"/><line id="line58" x1="292.085" x2="210.515" y1="291.381" y2="158.64" class="st0"/><polyline id="polyline60" points="257.5 256.5 202.5 167.5 195.1 161.5" class="st0" transform="matrix(1.5275243,0,0,1.5275243,-87.504927,-100.42853)"/><path id="path62" d="m 854.21378,189.03732 -65.68354,-56.51839 c 0,0 -128.15929,51.93582 -294.04842,56.51839 -165.88914,4.58258 -272.66308,-33.60553 -272.66308,-33.60553" class="st0"/><path id="path64" d="M 403.59413,205.84009" class="st0"/><path id="path66" d="m 444.83728,121.82626 c 0,0 -5.80459,35.13305 -35.74407,65.68354" class="st0"/><path id="path68" d="m 629.66772,95.858344 c 0,0 -10.53992,48.422516 -51.17207,86.916126" class="st0"/><path id="path70" d="m 721.01367,77.3753 c 0,0 0.45825,34.06379 -31.00875,85.0831" class="st0"/><path id="path72" d="m 807.47154,77.3753 c 0,0 5.19358,17.719282 -6.1101,66.29455" class="st0"/><path id="path74" d="m 891.94363,113.57763 -4.88808,73.01566 c 0,0 107.69043,42.15966 301.68605,32.99452" class="st0"/><path id="path76" d="m 1182.4788,160.77813 c 0,0 3.2078,-22.14911 -7.4849,-38.18811" class="st0"/><path id="path78" d="m 1382.4317,951.27192 c 0,0 216.1447,-76.37621 219.8107,-378.82601 3.6661,-302.4498 -250.0557,-385.85262 -250.0557,-385.85262" class="st0"/><path id="path80" d="m 1500.5093,895.05903 -16.9555,1.22202 c 0,0 82.4863,-84.01383 93.179,-119.14689 0,0 3.055,-6.1101 19.8578,-6.1101 16.8027,0 113.6478,-274.64886 -29.3285,-448.48112" class="st0"/><path id="path82" d="m 1410.9964,588.48491 c 0,0 1.5275,53.46335 -12.2202,93.17898 0,0 -2.2913,8.40139 11.4564,8.40139 13.7477,0 36.6606,-1.52753 36.6606,-1.52753 0,0 6.1101,-1.52752 7.6376,-9.16514 1.5275,-7.63762 6.1101,-9.16515 9.1652,-87.06889 0,0 3.055,-10.69267 -7.6377,-10.69267 -10.6926,0 -41.3959,0 -41.3959,0 0,0 -4.4298,0 -3.666,6.87386 z" class="st0"/><line id="line84" x1="1582.843" x2="1625.003" y1="711.603" y2="705.799" class="st0"/><path id="path86" d="m 258.17381,77.3753 c 0,0 65.22529,17.719282 101.88587,20.77433" class="st0"/><path id="path88" d="m 281.39218,77.3753 c 0,0 33.60553,12.372947 78.6675,14.664233" class="st0"/><path id="path90" d="m 357.31014,77.3753 3.97156,33.91104 7.63762,8.70689 c 0,0 87.6799,15.27524 355.30215,-42.61793" class="st0"/></svg>